<?xml version="1.0" standalone="no"?>
<!DOCTYPE svg PUBLIC "-//W3C//DTD SVG 20010904//EN"
 "http://www.w3.org/TR/2001/REC-SVG-20010904/DTD/svg10.dtd">
<svg version="1.0" xmlns="http://www.w3.org/2000/svg"
 width="1292.000000pt" height="1190.000000pt" viewBox="0 0 1292.000000 1190.000000"
 preserveAspectRatio="xMidYMid meet">

<g transform="translate(0.000000,1190.000000) scale(0.100000,-0.100000)"
fill="#000000" stroke="none">
<path d="M4620 10404 c-98 -32 -227 -149 -274 -249 l-28 -60 -2 -380 -1 -380
38 -72 c97 -181 262 -266 456 -234 76 13 76 13 154 89 56 55 93 104 132 172
l54 95 4 325 c5 370 1 399 -72 501 -49 68 -102 111 -199 160 -72 36 -82 39
-162 38 -47 0 -92 -3 -100 -5z m171 -327 c19 -12 44 -43 56 -67 21 -43 22 -58
22 -313 l1 -267 -26 -40 c-17 -26 -40 -44 -68 -55 -39 -15 -45 -15 -90 2 -27
10 -58 31 -70 46 -20 28 -21 37 -18 325 l4 297 27 35 c51 64 104 76 162 37z"/>
<path d="M7361 10399 c-49 -15 -142 -81 -186 -131 -21 -24 -52 -72 -69 -108
l-31 -65 0 -370 0 -370 39 -73 c58 -109 117 -169 206 -211 68 -32 83 -35 165
-35 75 -1 99 3 144 23 83 38 178 128 238 226 47 79 52 92 58 168 4 45 5 195 3
332 -5 276 -10 303 -74 400 -48 72 -141 163 -199 193 -43 22 -64 26 -155 29
-58 1 -120 -2 -139 -8z m172 -313 c15 -14 34 -26 43 -28 9 -2 26 -15 37 -30
18 -25 19 -41 18 -296 -1 -149 -6 -284 -10 -300 -21 -73 -100 -130 -162 -117
-15 4 -45 25 -67 49 l-39 42 -6 300 -5 299 25 33 c54 71 121 90 166 48z"/>
<path d="M5476 9990 c-71 -5 -132 -12 -136 -17 -9 -10 3 -254 14 -271 6 -10
167 -11 759 -7 l752 6 0 147 0 147 -630 1 c-346 1 -688 -2 -759 -6z"/>
<path d="M4100 9911 c-8 -5 -58 -23 -110 -41 -92 -32 -116 -44 -210 -111 -191
-135 -337 -328 -405 -534 -61 -188 -58 -78 -56 -1850 0 -1118 4 -1640 12
-1685 19 -114 78 -284 125 -361 114 -185 272 -331 445 -412 169 -79 238 -101
369 -117 124 -16 3600 -16 3712 0 155 22 392 126 522 230 200 159 317 351 383
630 17 71 18 168 16 1660 -2 1089 -6 1613 -14 1675 -12 101 -50 243 -86 325
-30 69 -92 160 -109 160 -13 0 -44 37 -44 53 0 5 7 4 15 -3 24 -20 17 4 -13
46 -33 45 -158 164 -173 164 -5 0 27 -36 71 -80 44 -44 80 -84 80 -89 0 -5
-25 17 -56 49 -31 33 -109 95 -173 140 -64 44 -125 87 -136 96 -26 20 -91 49
-133 59 l-32 7 0 -70 c0 -38 3 -109 6 -159 l7 -89 84 -49 c122 -69 184 -125
251 -223 67 -98 85 -136 112 -237 46 -177 45 -132 45 -1770 0 -1755 8 -1591
-85 -1782 -93 -191 -250 -321 -465 -384 l-80 -24 -1850 0 -1850 0 -85 29
c-282 93 -500 327 -546 586 -11 60 -13 365 -14 1565 0 907 4 1535 10 1605 15
171 64 310 160 449 64 93 93 118 197 166 54 26 105 50 113 54 12 7 16 37 18
161 1 85 -1 157 -5 161 -5 4 -15 4 -23 0z"/>
<path d="M6355 9281 c-66 -11 -158 -53 -211 -97 l-43 -35 -55 45 c-80 65 -145
86 -265 86 -171 0 -309 -54 -416 -163 -115 -118 -169 -243 -169 -392 1 -113
15 -181 64 -295 67 -157 99 -197 379 -478 199 -200 272 -260 359 -292 86 -33
142 -31 237 10 86 36 94 42 343 292 182 181 227 231 258 280 15 24 46 66 69
95 57 69 81 121 110 238 29 113 31 183 10 266 -51 196 -198 358 -376 414 -88
28 -214 39 -294 26z m210 -132 c28 -5 86 -29 130 -52 69 -36 88 -53 142 -122
75 -96 101 -158 108 -262 5 -62 2 -90 -14 -138 l-19 -60 -1 71 c-1 108 -32
193 -112 311 -71 103 -194 173 -349 198 l-106 17 -54 -26 c-60 -29 -90 -33
-90 -12 0 27 79 72 150 85 43 8 149 3 215 -10z m-649 -40 c29 -11 56 -25 60
-31 13 -21 -13 -26 -62 -13 -91 23 -240 28 -323 11 -41 -9 -76 -15 -77 -13
-10 9 41 47 74 56 20 5 46 12 57 15 43 11 217 -5 271 -25z m313 -158 c35 -19
44 -51 49 -163 3 -69 9 -111 17 -118 7 -6 69 -13 139 -17 91 -4 129 -10 138
-20 8 -10 12 -60 13 -146 l0 -132 -28 -13 c-19 -9 -68 -14 -152 -13 l-124 0
-3 -152 -3 -152 -28 -13 c-32 -15 -210 -28 -250 -18 -36 9 -47 51 -47 187 0
83 -4 120 -12 126 -7 4 -66 10 -131 13 -162 9 -162 9 -162 173 0 173 -6 167
160 167 l134 0 7 46 c3 25 2 78 -3 117 -13 90 1 133 44 140 47 9 219 0 242
-12z"/>
<path d="M7650 8511 c-86 -18 -174 -86 -220 -172 l-33 -62 1 -152 c0 -174 11
-212 85 -284 77 -77 105 -84 296 -79 186 5 229 17 289 78 67 70 77 106 77 285
0 158 0 161 -30 219 -34 67 -116 140 -176 156 -45 12 -243 20 -289 11z m143
-138 c8 -10 21 -40 28 -68 20 -82 22 -84 82 -78 63 6 82 -9 82 -69 0 -31 -7
-45 -27 -63 -26 -22 -29 -23 -73 -9 l-46 13 6 -53 c6 -49 5 -55 -16 -70 -13
-9 -40 -16 -61 -16 -42 0 -53 13 -66 77 -7 35 -12 39 -51 49 -50 12 -64 35
-59 94 l3 35 57 -2 c64 -2 57 -13 73 107 9 68 35 88 68 53z m180 -51 c26 -27
27 -42 2 -42 -17 0 -66 51 -59 61 10 16 30 9 57 -19z"/>
<path d="M4323 8501 c-85 -22 -179 -125 -209 -229 -24 -83 -16 -311 13 -367
25 -48 64 -86 118 -114 36 -19 56 -21 224 -21 213 0 240 8 316 92 53 59 75
132 75 249 -1 194 -55 309 -175 372 -34 18 -61 21 -185 23 -80 2 -159 -1 -177
-5z m46 -318 c11 -20 -21 -73 -44 -73 -18 0 -29 35 -21 66 8 29 50 34 65 7z"/>
<path d="M5394 7382 c-64 -19 -158 -111 -174 -173 -8 -28 -11 -101 -8 -205 3
-159 3 -161 33 -210 41 -65 109 -111 181 -120 31 -3 118 -5 195 -2 135 4 141
5 182 34 56 39 123 140 137 207 15 75 -2 255 -31 314 -46 94 -110 145 -205
162 -78 14 -252 10 -310 -7z"/>
<path d="M6495 7387 c-58 -24 -92 -46 -127 -85 -55 -61 -63 -96 -63 -277 0
-159 0 -160 30 -214 18 -32 49 -68 75 -87 65 -48 126 -58 305 -50 140 6 153 8
195 34 26 16 62 52 85 86 l40 58 0 176 c0 201 -7 225 -84 295 -74 67 -89 71
-266 74 -109 2 -170 -1 -190 -10z"/>
<path d="M4252 7364 c-58 -29 -92 -65 -128 -137 -25 -48 -26 -55 -22 -211 3
-153 4 -163 30 -206 14 -25 39 -57 55 -72 54 -52 86 -58 289 -58 215 0 229 4
298 81 57 63 76 121 76 223 -1 196 -36 303 -116 359 -55 39 -100 46 -280 47
-142 0 -153 -1 -202 -26z"/>
<path d="M7605 7381 c-42 -13 -102 -51 -133 -82 -56 -57 -72 -120 -72 -279 0
-130 2 -143 26 -195 29 -60 78 -109 133 -132 47 -20 249 -28 364 -15 81 9 92
13 123 43 103 100 137 275 94 476 -14 66 -75 137 -145 169 -46 22 -62 24 -210
23 -88 -1 -169 -4 -180 -8z"/>
<path d="M6630 6300 c-134 -5 -148 -7 -191 -32 -25 -15 -58 -43 -73 -63 -50
-65 -56 -93 -58 -262 -2 -177 5 -202 78 -282 57 -64 89 -74 255 -79 187 -6
229 6 309 87 81 82 93 124 88 303 -4 156 -13 188 -78 262 -58 66 -104 75 -330
66z"/>
<path d="M4265 6283 c-63 -25 -98 -56 -130 -114 -30 -54 -30 -55 -30 -214 0
-154 1 -162 27 -210 38 -73 104 -130 174 -151 77 -22 307 -16 372 11 49 20
106 81 142 151 23 46 25 58 24 189 -1 121 -4 147 -23 190 -33 75 -69 115 -125
141 -48 22 -62 24 -221 23 -132 0 -179 -4 -210 -16z"/>
<path d="M5395 6291 c-73 -18 -142 -77 -170 -145 -13 -31 -17 -72 -16 -194 1
-85 6 -172 11 -193 13 -47 94 -133 147 -156 58 -25 304 -31 372 -8 67 22 142
90 172 157 22 48 24 67 24 193 0 122 -3 146 -22 187 -34 75 -73 119 -128 144
-46 22 -63 24 -205 23 -85 -1 -168 -4 -185 -8z"/>
<path d="M7565 6277 c-28 -13 -69 -45 -91 -70 -58 -66 -74 -127 -74 -283 0
-115 3 -135 24 -181 36 -77 90 -126 162 -146 88 -25 323 -24 379 2 89 40 145
110 172 214 19 74 13 265 -10 319 -25 58 -75 117 -119 140 -39 21 -58 23 -218
26 -167 3 -177 2 -225 -21z"/>
<path d="M8684 4480 c-22 -9 -54 -75 -54 -110 0 -33 -33 -57 -88 -64 -44 -6
-53 -10 -58 -31 -8 -33 -1 -40 49 -54 42 -12 44 -14 55 -67 15 -76 40 -122 73
-139 62 -33 93 -9 124 96 10 35 20 66 22 68 2 2 29 8 60 12 65 9 93 33 93 80
0 35 -6 39 -72 45 -99 10 -96 8 -103 72 -9 82 -19 102 -52 101 -16 0 -37 -4
-49 -9z"/>
<path d="M7813 4303 c-13 -2 -32 -16 -43 -30 -20 -25 -20 -38 -20 -772 0 -792
2 -819 49 -925 27 -61 59 -76 184 -83 131 -7 134 -4 148 106 12 97 8 120 -35
210 l-31 66 -3 708 -3 708 -25 9 c-25 10 -177 12 -221 3z"/>
<path d="M2605 4130 c-238 -36 -447 -178 -570 -387 -81 -139 -115 -267 -115
-436 0 -209 50 -372 164 -531 89 -124 165 -180 342 -249 l109 -42 160 0 c137
0 169 3 226 22 87 28 313 130 344 155 41 32 41 32 -101 219 -65 86 -67 87
-114 47 -158 -136 -392 -157 -557 -52 -128 81 -233 301 -233 486 0 228 162
429 378 468 131 23 331 -21 428 -95 18 -14 35 -25 37 -25 3 0 18 21 33 48 15
26 52 84 81 129 30 45 52 87 48 92 -3 6 -24 16 -45 22 -22 7 -40 16 -40 20 0
21 -169 97 -241 109 -72 11 -258 11 -334 0z m470 -70 c13 -5 14 -9 5 -9 -8 0
-24 4 -35 9 -13 5 -14 9 -5 9 8 0 24 -4 35 -9z m-731 -1085 c23 -41 24 -45 6
-25 -25 28 -70 113 -70 132 0 7 8 -3 18 -22 10 -19 30 -57 46 -85z m67 -81
l24 -27 -27 18 c-16 9 -28 21 -28 26 0 14 5 11 31 -17z"/>
<path d="M6955 4131 c-134 -19 -273 -107 -355 -226 -94 -138 -114 -310 -49
-437 62 -121 148 -182 374 -263 231 -84 289 -116 319 -180 34 -72 7 -176 -56
-215 -17 -10 -63 -24 -101 -31 -61 -11 -79 -11 -135 4 -76 20 -204 82 -272
132 l-48 35 -49 -72 c-27 -40 -66 -97 -86 -125 -20 -29 -37 -56 -37 -61 0 -21
93 -95 165 -130 137 -68 218 -87 380 -87 167 0 248 20 362 91 125 78 185 167
219 324 15 70 16 93 6 162 -30 207 -150 312 -491 429 -198 68 -263 121 -263
215 0 70 114 154 207 154 91 0 248 -54 352 -120 28 -18 32 -13 102 123 55 106
61 127 32 127 -10 0 -51 15 -92 34 -70 32 -169 69 -214 79 -11 3 -5 5 15 6 37
1 160 -42 245 -86 48 -25 49 -25 30 -3 -23 26 -115 74 -195 102 -60 22 -272
33 -365 19z m-35 -613 c14 -9 20 -17 13 -17 -16 -1 -95 61 -101 79 -3 8 10 1
29 -15 19 -17 46 -38 59 -47z m340 -128 c13 -9 13 -10 0 -9 -8 0 -24 4 -35 9
l-20 9 20 0 c11 0 27 -4 35 -9z m119 -49 c24 -12 41 -24 38 -27 -4 -4 -137 55
-137 61 0 7 57 -13 99 -34z"/>
<path d="M9785 4070 c-115 -30 -152 -48 -160 -78 -4 -15 -5 -94 -4 -177 l4
-150 -40 5 c-22 2 -62 4 -90 5 l-50 0 -3 -70 c-2 -38 2 -100 8 -137 l12 -68
85 0 86 0 -6 -257 c-7 -292 2 -377 50 -465 37 -70 115 -145 182 -176 99 -45
272 -32 370 29 l34 21 -7 111 c-8 133 -14 167 -31 167 -7 0 -37 -11 -66 -24
-30 -14 -71 -28 -92 -31 -34 -7 -40 -4 -72 29 -19 20 -40 53 -46 74 -7 22 -14
136 -16 284 l-5 247 153 3 154 3 3 131 3 132 -153 8 -153 9 -3 184 c-1 115 -7
189 -13 198 -15 17 -48 15 -134 -7z"/>
<path d="M3658 3685 c-102 -28 -247 -83 -267 -101 -14 -13 4 -51 94 -201 l31
-51 47 29 c104 65 307 90 390 48 79 -40 117 -90 117 -154 l0 -35 -123 6 c-221
12 -408 -41 -496 -141 -79 -90 -107 -171 -99 -286 12 -169 136 -290 325 -319
141 -22 289 20 379 108 40 39 54 33 54 -23 0 -17 7 -41 16 -53 14 -21 22 -22
138 -22 98 0 126 3 136 15 10 12 10 42 1 143 -6 70 -13 249 -15 397 -4 234 -8
280 -26 344 -50 177 -125 251 -299 298 -120 32 -281 31 -403 -2z m393 -705
c22 -12 26 -70 8 -117 -28 -74 -126 -133 -222 -133 -70 0 -106 18 -143 72 -53
76 -1 154 119 178 61 12 215 12 238 0z m-367 -217 c17 -18 25 -33 19 -33 -17
0 -63 48 -63 67 0 9 3 13 8 8 4 -6 20 -25 36 -42z"/>
<path d="M5110 3695 c-60 -17 -109 -47 -170 -101 -41 -37 -60 -38 -60 -1 0 12
-9 36 -19 54 -16 26 -28 33 -67 39 -56 8 -193 -1 -206 -14 -16 -16 -19 -204
-11 -681 8 -448 10 -474 28 -487 13 -10 52 -14 136 -14 174 0 160 -30 160 338
0 365 4 395 60 469 60 80 121 106 237 101 l87 -3 11 60 c7 33 19 93 28 133 9
40 16 77 16 81 0 12 -67 32 -123 37 -29 2 -76 -3 -107 -11z"/>
<path d="M5780 3685 c-102 -19 -206 -74 -286 -151 -51 -49 -73 -81 -109 -157
-56 -118 -69 -183 -62 -317 12 -239 120 -416 313 -509 126 -62 187 -75 324
-68 79 3 133 11 173 26 69 24 181 82 220 114 l28 22 -36 50 c-86 122 -101 143
-111 161 -11 18 -13 18 -33 -8 -12 -15 -52 -42 -89 -60 -62 -31 -74 -33 -167
-33 -133 0 -172 19 -256 122 -33 41 -59 79 -57 85 3 7 117 11 353 12 255 2
356 5 372 14 31 17 38 50 37 172 -4 282 -135 470 -366 525 -76 18 -148 18
-248 0z m345 -56 c47 -25 85 -59 128 -114 30 -39 29 -39 -14 6 -58 60 -107 96
-155 113 -24 9 -31 15 -19 15 11 1 38 -8 60 -20z m-156 -230 c78 -39 115 -89
115 -157 l1 -47 -225 4 c-124 1 -229 6 -233 11 -12 11 36 101 75 139 84 83
168 99 267 50z m-314 -520 c23 -43 84 -109 104 -110 10 0 12 -2 3 -6 -22 -9
-112 80 -126 125 -10 32 1 27 19 -9z"/>
<path d="M8692 3685 c-115 -25 -279 -131 -347 -223 -92 -126 -131 -266 -122
-437 7 -129 35 -216 102 -309 121 -170 355 -270 552 -237 147 25 252 79 364
190 122 121 189 277 189 440 0 204 -87 370 -252 483 -143 97 -315 130 -486 93z
m393 -65 c22 -11 56 -33 75 -51 l35 -31 -35 25 c-35 24 -112 62 -160 78 -20 7
-18 8 10 4 19 -3 53 -14 75 -25z m-164 -234 c93 -44 157 -133 180 -248 9 -46
8 -69 -5 -130 -49 -221 -276 -298 -457 -154 -81 64 -112 130 -112 239 -1 191
122 322 293 314 36 -2 81 -11 101 -21z"/>
<path d="M10422 2868 c3 -7 14 -17 26 -23 28 -12 31 -23 33 -108 2 -63 11 -88
27 -72 4 4 9 48 12 98 5 84 7 92 25 92 18 0 20 -8 25 -85 5 -77 7 -85 26 -88
18 -3 22 4 27 35 4 21 7 63 7 94 0 67 -2 69 -128 69 -63 0 -83 -3 -80 -12z"/>
<path d="M10682 2868 c-7 -7 -12 -47 -12 -100 0 -81 2 -88 20 -88 22 0 26 12
35 112 5 59 3 68 -13 77 -13 7 -22 7 -30 -1z"/>
<path d="M3996 2067 c-64 -36 -97 -85 -103 -153 -5 -54 -2 -62 26 -102 80
-109 186 -109 258 -1 34 51 36 103 6 170 -39 88 -120 125 -187 86z m99 -108
c50 -44 47 -97 -6 -124 -65 -34 -119 -5 -119 64 0 47 31 91 65 91 14 0 40 -14
60 -31z"/>
<path d="M4421 2070 c-43 -24 -73 -71 -69 -107 2 -23 14 -33 58 -56 59 -30
100 -61 100 -76 0 -17 -31 -41 -43 -34 -7 4 -24 15 -38 26 -35 25 -73 19 -77
-11 -4 -29 9 -45 59 -71 92 -48 180 -4 183 91 1 35 -4 45 -39 75 -22 18 -55
40 -73 48 -23 10 -32 20 -30 32 4 21 45 30 61 14 13 -13 54 -14 62 -2 10 16
-18 62 -46 77 -37 19 -67 17 -108 -6z"/>
<path d="M4756 2072 c-2 -4 -6 -83 -8 -176 l-3 -170 30 0 c29 -1 30 1 33 49 4
55 12 65 58 65 39 0 82 33 100 77 23 54 -3 122 -54 141 -35 13 -150 24 -156
14z m132 -96 c26 -25 -7 -55 -60 -56 -21 0 -24 30 -7 61 11 21 41 19 67 -5z"/>
<path d="M5347 2073 c-4 -3 -7 -24 -7 -45 l0 -38 45 0 45 0 2 -92 c4 -181 -1
-163 41 -166 l37 -3 0 130 0 131 49 0 c48 0 49 1 55 35 4 20 4 40 1 45 -7 11
-258 14 -268 3z"/>
<path d="M5831 2067 c-6 -8 -26 -49 -46 -93 -19 -43 -40 -88 -47 -99 -12 -21
-38 -111 -38 -132 0 -8 14 -13 35 -13 30 0 35 4 43 33 8 31 10 32 70 35 l61 3
15 -36 c13 -29 20 -35 45 -35 41 0 40 12 -8 142 -42 114 -65 164 -89 191 -18
20 -26 21 -41 4z m38 -148 c15 -49 4 -67 -28 -50 -11 6 -19 17 -16 24 2 6 6
24 9 40 9 38 21 34 35 -14z"/>
<path d="M7170 2058 c-56 -39 -93 -101 -94 -157 -1 -40 4 -56 30 -87 50 -62
79 -79 137 -79 61 0 99 22 143 86 39 57 39 109 -1 167 -56 84 -150 114 -215
70z m129 -92 c12 -13 24 -39 27 -58 5 -28 2 -39 -17 -57 -32 -29 -63 -36 -100
-21 -92 39 -73 160 26 160 31 0 47 -6 64 -24z"/>
<path d="M7661 2069 c-73 -29 -121 -97 -121 -172 0 -81 85 -177 158 -177 35 0
116 51 146 93 34 46 29 132 -9 187 -49 71 -109 95 -174 69z m98 -105 c27 -34
29 -104 4 -127 -45 -40 -101 -30 -128 23 -22 42 -18 74 11 104 36 36 85 36
113 0z"/>
<path d="M8003 2064 c-9 -24 3 -324 13 -334 5 -5 19 -7 32 -4 19 6 22 13 22
60 0 29 5 56 10 59 6 4 37 -21 68 -56 48 -51 61 -61 80 -55 32 11 28 26 -28
96 -27 34 -50 70 -50 79 0 21 23 55 68 103 37 40 36 58 -6 58 -20 0 -41 -15
-83 -60 -30 -33 -61 -60 -67 -60 -9 0 -10 16 -6 56 5 43 4 58 -7 65 -21 13
-39 11 -46 -7z"/>
<path d="M8641 2071 c-8 -5 -11 -56 -9 -167 l3 -159 33 -3 32 -3 0 81 c0 45 4
80 8 78 11 -4 82 -84 116 -130 19 -25 36 -38 51 -38 21 0 24 6 30 53 3 28 5
104 3 167 l-3 115 -36 3 -36 3 5 -80 c3 -49 1 -81 -5 -81 -5 0 -39 35 -76 79
-63 76 -92 96 -116 82z"/>
<path d="M9153 2061 c-62 -29 -103 -90 -103 -157 0 -45 5 -58 36 -96 69 -83
155 -103 215 -50 27 24 33 38 37 83 5 65 -4 76 -68 81 -42 3 -45 1 -48 -24 -2
-18 4 -31 20 -43 22 -15 22 -17 5 -29 -18 -14 -68 -9 -97 9 -18 11 -8 110 15
135 15 16 31 20 87 20 61 0 68 2 68 20 0 26 -34 56 -72 64 -43 9 -48 8 -95
-13z"/>
<path d="M3482 1903 l3 -168 30 0 c29 0 30 2 33 50 2 27 8 55 14 62 6 7 32 13
59 13 l48 0 3 -62 3 -63 38 -3 37 -3 0 49 c0 27 3 104 7 170 l6 122 -41 0 -42
0 0 -48 c0 -26 -5 -53 -12 -60 -7 -7 -36 -12 -65 -12 l-53 0 0 54 c0 56 -8 66
-51 66 -19 0 -19 -7 -17 -167z"/>
<path d="M6168 2063 l-28 -4 0 -165 0 -164 100 -1 c55 -1 106 -2 113 -3 7 -1
13 15 15 42 l3 42 -65 0 c-100 0 -96 -6 -96 136 0 68 -3 123 -7 123 -5 -1 -20
-4 -35 -6z"/>
<path d="M6700 1901 l0 -171 95 0 c88 0 98 2 120 24 30 30 40 67 29 103 -5 16
-9 59 -9 97 0 93 -17 106 -144 114 l-91 5 0 -172z m155 79 c9 -28 -13 -52 -44
-48 -21 2 -27 9 -29 36 -3 31 -2 32 32 32 26 0 36 -5 41 -20z m15 -140 c0 -24
-24 -42 -52 -38 -18 2 -23 9 -23 33 0 23 5 30 25 35 29 8 50 -5 50 -30z"/>
<path d="M5119 2053 c-4 -43 4 -320 9 -325 4 -3 19 -4 35 -1 l27 5 0 164 0
164 -35 0 c-19 0 -35 -3 -36 -7z"/>
<path d="M8397 2053 c-4 -3 -7 -69 -7 -145 0 -136 1 -139 26 -165 22 -22 28
-24 40 -11 12 12 13 41 8 171 l-7 157 -27 0 c-15 0 -30 -3 -33 -7z"/>
<path d="M2954 1971 c-47 -15 -49 -18 -52 -57 -2 -34 2 -46 27 -72 16 -18 39
-32 51 -32 48 0 120 60 120 100 0 27 -31 59 -66 69 -22 6 -45 4 -80 -8z"/>
<path d="M2340 1935 c-17 -21 -4 -82 21 -96 13 -6 72 -9 159 -7 119 3 141 6
159 22 27 25 27 61 -1 80 -32 23 -319 23 -338 1z"/>
<path d="M9740 1941 c-34 -6 -35 -7 -32 -46 2 -22 8 -45 13 -51 13 -16 182
-27 265 -19 74 8 104 28 104 70 0 43 -41 55 -187 54 -70 -1 -144 -4 -163 -8z"/>
</g>
</svg>
